<svg width="17" height="21" viewBox="0 0 17 21" fill="none" xmlns="http://www.w3.org/2000/svg">
<path d="M1.5 0.351562H15.5C15.7652 0.351563 16.0196 0.456919 16.2071 0.644456C16.3946 0.831992 16.5 1.08635 16.5 1.35156V20.4946C16.5001 20.584 16.4763 20.6718 16.4309 20.7488C16.3855 20.8259 16.3204 20.8893 16.2421 20.9326C16.1639 20.9759 16.0755 20.9975 15.9861 20.995C15.8968 20.9925 15.8097 20.9661 15.734 20.9186L8.5 16.3816L1.266 20.9176C1.19037 20.9651 1.10339 20.9915 1.0141 20.994C0.924817 20.9965 0.836486 20.9751 0.758295 20.9319C0.680104 20.8887 0.614907 20.8254 0.569483 20.7485C0.524059 20.6716 0.500066 20.5839 0.5 20.4946V1.35156C0.5 1.08635 0.605357 0.831992 0.792893 0.644456C0.98043 0.456919 1.23478 0.351563 1.5 0.351562ZM14.5 2.35156H2.5V17.7836L8.5 14.0226L14.5 17.7836V2.35156Z" fill="white"/>
</svg>
