<svg width="20" height="19" viewBox="0 0 20 19" fill="none" xmlns="http://www.w3.org/2000/svg">
<path d="M18.243 2.18764C20.505 4.45564 20.583 8.06764 18.479 10.4236L9.99901 18.9156L1.52101 10.4236C-0.582994 8.06764 -0.503994 4.44964 1.75701 2.18764C4.02201 -0.0763559 7.64501 -0.152356 10.001 1.95964C12.35 -0.149356 15.98 -0.079356 18.243 2.18764ZM3.17201 3.60264C1.68201 5.09264 1.60701 7.47764 2.98001 9.05364L10 16.0846L17.02 9.05464C18.394 7.47764 18.319 5.09564 16.827 3.60064C15.34 2.11064 12.946 2.03864 11.374 3.41464L7.17201 7.61764L5.75701 6.20364L8.58201 3.37664L8.50001 3.30764C6.92501 2.04264 4.62301 2.15064 3.17201 3.60264Z" fill="white"/>
</svg>
