<svg width="24" height="25" viewBox="0 0 24 25" fill="none" xmlns="http://www.w3.org/2000/svg">
<path d="M19 21.6728H5C4.73478 21.6728 4.48043 21.5674 4.29289 21.3799C4.10536 21.1923 4 20.938 4 20.6728V11.6728H1L11.327 2.28477C11.5111 2.11725 11.7511 2.02441 12 2.02441C12.2489 2.02441 12.4889 2.11725 12.673 2.28477L23 11.6728H20V20.6728C20 20.938 19.8946 21.1923 19.7071 21.3799C19.5196 21.5674 19.2652 21.6728 19 21.6728ZM13 19.6728H18V9.82977L12 4.37577L6 9.82977V19.6728H11V13.6728H13V19.6728Z" fill="white"/>
</svg>
