<svg width="22" height="22" viewBox="0 0 22 22" fill="none" xmlns="http://www.w3.org/2000/svg">
<path d="M3.77474 5.19753L0.531738 1.95553L1.94674 0.540527L5.18874 3.78353H20.4307C20.5866 3.78352 20.7403 3.81994 20.8796 3.88989C21.0189 3.95985 21.1399 4.06139 21.233 4.18642C21.326 4.31145 21.3886 4.45651 21.4156 4.61001C21.4427 4.76352 21.4335 4.92122 21.3887 5.07053L18.9887 13.0705C18.927 13.2766 18.8004 13.4573 18.6279 13.5857C18.4553 13.7142 18.2459 13.7835 18.0307 13.7835H5.77474V15.7835H16.7747V17.7835H4.77474C4.50952 17.7835 4.25517 17.6782 4.06763 17.4906C3.8801 17.3031 3.77474 17.0487 3.77474 16.7835V5.19753ZM5.77474 5.78353V11.7835H17.2867L19.0867 5.78353H5.77474ZM5.27474 21.7835C4.87691 21.7835 4.49538 21.6255 4.21408 21.3442C3.93277 21.0629 3.77474 20.6814 3.77474 20.2835C3.77474 19.8857 3.93277 19.5042 4.21408 19.2229C4.49538 18.9416 4.87691 18.7835 5.27474 18.7835C5.67256 18.7835 6.05409 18.9416 6.3354 19.2229C6.6167 19.5042 6.77474 19.8857 6.77474 20.2835C6.77474 20.6814 6.6167 21.0629 6.3354 21.3442C6.05409 21.6255 5.67256 21.7835 5.27474 21.7835ZM17.2747 21.7835C16.8769 21.7835 16.4954 21.6255 16.2141 21.3442C15.9328 21.0629 15.7747 20.6814 15.7747 20.2835C15.7747 19.8857 15.9328 19.5042 16.2141 19.2229C16.4954 18.9416 16.8769 18.7835 17.2747 18.7835C17.6726 18.7835 18.0541 18.9416 18.3354 19.2229C18.6167 19.5042 18.7747 19.8857 18.7747 20.2835C18.7747 20.6814 18.6167 21.0629 18.3354 21.3442C18.0541 21.6255 17.6726 21.7835 17.2747 21.7835Z" fill="white"/>
</svg>
